<svg width="120" height="120" viewBox="0 0 120 120" fill="none" xmlns="http://www.w3.org/2000/svg">
<path d="M0 26C0 11.6406 11.6406 0 26 0H94C108.359 0 120 11.6406 120 26V94C120 108.359 108.359 120 94 120H26C11.6406 120 0 108.359 0 94V26Z" fill="#0C0C0C"/>
<path d="M78.36 78.36C74.7315 81.976 70.1128 84.4357 65.0873 85.4285C60.0618 86.4214 54.8547 85.9028 50.1237 83.9384C45.3927 81.9739 41.3499 78.6516 38.5057 74.3911C35.6616 70.1305 34.1436 65.1227 34.1436 60C34.1436 54.8774 35.6616 49.8696 38.5057 45.609C41.3499 41.3484 45.3927 38.0262 50.1237 36.0617C54.8547 34.0972 60.0618 33.5787 65.0873 34.5715C70.1128 35.5644 74.7315 38.0241 78.36 41.64" stroke="url(#paint0_linear_5_20)" stroke-width="5.76" stroke-linecap="round"/>
<path d="M51.36 51.36C53.0701 49.644 55.251 48.474 57.6265 47.9983C60.0019 47.5226 62.4652 47.7625 64.7042 48.6877C66.9432 49.6129 68.8574 51.1817 70.2042 53.1954C71.551 55.2092 72.2699 57.5774 72.2699 60C72.2699 62.4227 71.551 64.7908 70.2042 66.8046C68.8574 68.8184 66.9432 70.3872 64.7042 71.3123C62.4652 72.2375 60.0019 72.4774 57.6265 72.0017C55.251 71.526 53.0701 70.356 51.36 68.64" stroke="url(#paint1_linear_5_20)" stroke-width="5.76" stroke-linecap="round"/>
<defs>
<linearGradient id="paint0_linear_5_20" x1="34.08" y1="34.08" x2="85.92" y2="85.92" gradientUnits="userSpaceOnUse">
<stop stop-color="#00D084"/>
<stop offset="1" stop-color="#00A3FF"/>
</linearGradient>
<linearGradient id="paint1_linear_5_20" x1="34.08" y1="34.08" x2="85.92" y2="85.92" gradientUnits="userSpaceOnUse">
<stop stop-color="#00D084"/>
<stop offset="1" stop-color="#00A3FF"/>
</linearGradient>
</defs>
</svg>
