<svg width="120" height="120" viewBox="0 0 120 120" fill="none" xmlns="http://www.w3.org/2000/svg">
<path d="M90.6 90.6C84.5524 96.6266 76.8547 100.726 68.4788 102.381C60.1029 104.036 51.4245 103.171 43.5395 99.8972C35.6545 96.6231 28.9164 91.086 24.1762 83.985C19.4359 76.8841 16.9061 68.5378 16.9061 60C16.9061 51.4622 19.4359 43.1159 24.1762 36.015C28.9164 28.914 35.6545 23.3769 43.5395 20.1028C51.4245 16.8287 60.1029 15.9644 68.4788 17.6191C76.8547 19.2739 84.5524 23.3734 90.6 29.4" stroke="white" stroke-width="9.6" stroke-linecap="round"/>
<path d="M45.6 45.6C48.4501 42.7399 52.085 40.79 56.0441 39.9971C60.0032 39.2043 64.1086 39.6041 67.8403 41.1461C71.572 42.688 74.7623 45.3027 77.007 48.659C79.2517 52.0153 80.4499 55.9622 80.4499 60C80.4499 64.0377 79.2517 67.9847 77.007 71.341C74.7623 74.6972 71.572 77.3119 67.8403 78.8539C64.1086 80.3958 60.0032 80.7957 56.0441 80.0028C52.085 79.21 48.4501 77.26 45.6 74.4" stroke="white" stroke-width="9.6" stroke-linecap="round"/>
</svg>
